<svg xmlns="http://www.w3.org/2000/svg" viewBox="0 0 176.71 102.5"><title>icon-q-search</title><g id="圖層_6" data-name="圖層 6"><path d="M88.27,10.65a55.62,55.62,0,0,1-2.48,11.78L84,21.85A51.77,51.77,0,0,0,86.39,10.4Zm11.25,6.26L98,18.4a47.43,47.43,0,0,0-5.13-7V42.75h-2V.1h2V9.22A43.43,43.43,0,0,1,99.52,16.91Zm27,6.72H110.16q-2.07,12.24-13.75,19.44L95,41.72q11.18-6.82,13.13-18.09H95.62V21.8h12.81a91.29,91.29,0,0,0,.51-11.49h-10V8.48h10V0h2V8.48h11.3V21.8h4.34Zm-6.31-1.83V10.31h-9.32a91.31,91.31,0,0,1-.51,11.49Zm6.5,19.92-1.59,1.23a89,89,0,0,0-12.67-14.14l1.37-1.25A89,89,0,0,1,126.73,41.72Z" style="fill:#979797"/><path d="M176.71,39.84,176,41.76H159.25a37.48,37.48,0,0,1-10.74-1.29,21.59,21.59,0,0,1-7.8-4.37,29.91,29.91,0,0,1-6.17,6.55L133,41.28a24,24,0,0,0,9.83-15.94h-8.24V23.53a102.54,102.54,0,0,0,8.14-10.77h-9.32V10.93H145v1.83q-3.83,5.64-8.09,10.77h7.9v1.81a33,33,0,0,1-3.2,9.18,22.5,22.5,0,0,0,6.83,4.06,28.8,28.8,0,0,0,10,1.43h11.2ZM143.5,7.3,142,8.62a54.74,54.74,0,0,0-7-7L136.25.24A65.11,65.11,0,0,1,143.5,7.3Zm32.37-.24h-13v5.18H173.8v10.5H162.89V24.3a50,50,0,0,1,12.89,9.37l-1.18,1.49a48.65,48.65,0,0,0-11.71-8.74v11.8h-2V24.3a45.46,45.46,0,0,1-12.43,11l-1.32-1.59a40.66,40.66,0,0,0,12.67-10.94H150V12.24h10.89V7.06H148V5.23h13V0h2V5.23h13Zm-15,13.85V14H152v6.86Zm10.91,0V14h-8.94v6.86Z" style="fill:#979797"/><path d="M97.23,81.09q-2.41,1.28-4.82,2.36V98.79a3.46,3.46,0,0,1-.79,2.2q-.79,1-4.31,1l-1.66,0L85,100l3.37.12q2,0,2-1.54V84.34l-5.93,2.41L83.62,85q4.24-1.49,6.77-2.63V70.27H83.72V68.42h6.67V59.24h2v9.18h4.82v1.85H92.41v11.2q2.65-1.23,4.24-2.12Zm29.84,19.68-.94,1.73a42.25,42.25,0,0,1-14.74-5.83,53.66,53.66,0,0,1-14.64,5.83l-.94-1.64a57.41,57.41,0,0,0,14-5.37,39.45,39.45,0,0,1-8.5-9.08H98.22V84.58H110.6V59.24h2V84.58h10v1.83a35,35,0,0,1-9.47,9.23A39.11,39.11,0,0,0,127.07,100.77Zm-18.28-39a62.77,62.77,0,0,1-7.85,3.4v5.13h7V72.1h-7v6.62h7.39v1.81H99V64.06a43.05,43.05,0,0,0,8.79-3.83Zm11.44,24.66H103.66a33.81,33.81,0,0,0,7.78,8.09A30,30,0,0,0,120.23,86.41Zm4.09-5.88H115V78.73h7.39V72.1h-6.86V70.27h6.86v-6.6h-7.44V61.84h9.42Z" style="fill:#979797"/><path d="M176.06,90.7h-9.27v8a2.78,2.78,0,0,1-1.18,2.66,9.55,9.55,0,0,1-4.26.66l-4.53-.07-.77-1.88q2.14.12,4.72.12,2.94,0,3.49-.4a1.65,1.65,0,0,0,.55-1.43V90.7H133.33V89h31.48V86.31h2V89h9.27Zm-22.35-7.1q-9.08,1.16-19.44,1.69l-.48-1.73q2.79,0,9.47-.58V77.38H136V75.62h16.28v1.76h-7v5.4q4.6-.34,8.48-.94ZM175.27,67h-6v5.18H138.42V70.39h28.93V67H134.18V65.26h33.17V61.89H138.42V60.13h30.88v5.13h6ZM152.14,98.21l-1.4,1.42a40.9,40.9,0,0,0-7.44-6l1.23-1.37A43.67,43.67,0,0,1,152.14,98.21ZM173.2,84.75H155.83V75.35H173.2Zm-2-1.73V77.14H157.8V83Z" style="fill:#979797"/><path d="M54.3,69.16,41.49,56.36a24.67,24.67,0,0,1-7.4,7.4L46.89,76.56a5.23,5.23,0,0,0,7.4-7.4Z" style="fill:#acacac"/><path d="M41.87,43.21A20.93,20.93,0,1,0,20.94,64.14,20.93,20.93,0,0,0,41.87,43.21ZM20.94,58.91a15.7,15.7,0,1,1,15.7-15.7A15.72,15.72,0,0,1,20.94,58.91Z" style="fill:#acacac"/><path d="M8.72,43.21h3.49a8.74,8.74,0,0,1,8.72-8.72V31A12.23,12.23,0,0,0,8.72,43.21Z" style="fill:#acacac"/></g></svg>