<svg xmlns="http://www.w3.org/2000/svg" viewBox="0 0 375.78 70.84"><title>fLogo</title><g id="圖層_6" data-name="圖層 6"><path d="M31,30.09H.43V28.39H15.49V24.47H4.36V22.68H15.49V18.9H5.8a25.15,25.15,0,0,1-3.86,3.85L.33,21.57a26.59,26.59,0,0,0,6.84-7.71l1.78.7a22.85,22.85,0,0,1-1.86,2.63h8.41V14.36H17.3v2.84H29.38V18.9H17.3v3.78H28.51v1.79H17.3v3.91H31Zm-2.87-17H3.7V1.2H28.08Zm-1.85-7V2.91H5.54V6.15Zm0,5.26V7.95H5.54v3.47Z" style="fill:#fff"/><path d="M69.22,22.61q-.15,5.38-1.28,6.6a3.73,3.73,0,0,1-2.85,1.21H59.44a2.55,2.55,0,0,1-2.05-.86,3.29,3.29,0,0,1-.73-2.21v-12h-6a19,19,0,0,1-2.39,9.25Q46,28.52,40.09,31.16L38.73,29.5q10.17-3.73,10-14.13H39.19v-1.9H53V.27h1.88V13.47h14v1.9H58.53v12a1.24,1.24,0,0,0,.34.88,1.12,1.12,0,0,0,.85.37H65a1.85,1.85,0,0,0,1.85-1.44,18.13,18.13,0,0,0,.49-5.1ZM48.45,10.46l-1.61,1.06a37.89,37.89,0,0,0-4.79-7.95L43.6,2.44A46.78,46.78,0,0,1,48.45,10.46ZM65.88,3A45,45,0,0,1,61,11.42l-1.59-1.06a34.35,34.35,0,0,0,4.7-8.15Z" style="fill:#fff"/><path d="M91.75,4.1H87.41V5.35H85.67V4.1H77.36V2.51h8.31V.43h1.74V2.51h4.34Zm16,21.94H88.08a12.57,12.57,0,0,1-5.28,3.08q11-.34,17.6-.94a6.28,6.28,0,0,0-1.57-.73l1.44-1.06a26.48,26.48,0,0,1,6,3.54l-1.26,1q-1-.74-2.41-1.61Q88.66,30.68,79,30.63l-.17-1.47A15.19,15.19,0,0,0,85.55,26H77.4V24.47h30.32ZM93.6,11.38H90.28v1c0,.38.2.56.6.56h2.41v1.26H90.39q-1.78,0-1.78-1.86v-1H83.7a6,6,0,0,1-3,3.74h4.61V13.3H87v1.83h5.26v1.44H87v1.5q3.26-.22,6.1-.63V18.9q-7.79.79-14.63,1.2l-.17-1.5q3.95-.15,7-.39V16.56h-5v-1.2a12.84,12.84,0,0,1-1.88.56l-.73-1.37a5.73,5.73,0,0,0,4.44-3.18H78V10h7.31V8.58h-6V7.21h6v-1H87v1h5.67V8.58H87V10H93.6ZM104,22.61H81.07V21.14H104ZM107.61,4.1H99.2V5.35H97.46V4.1H93.39V2.51h4.07V.43H99.2V2.51h8.41Zm.24,11.3a11.86,11.86,0,0,1-1.08,3.74,1.92,1.92,0,0,1-1.69,1.13,1.74,1.74,0,0,1-1.69-1.32,16.85,16.85,0,0,1-.5-5.05q0-1.32.09-3.78h-2.87a20.09,20.09,0,0,1-.77,4.75q1.13.84,2.6,2.17l-.87,1.23q-1.85-1.55-2.36-1.93a15.21,15.21,0,0,1-3.35,4L94.2,19.07a11.15,11.15,0,0,0,3.16-3.71q-1.42-1-2.94-1.85l.73-1.2a26.73,26.73,0,0,1,2.65,1.57,17,17,0,0,0,.63-3.78H95V8.68H98.5a17.47,17.47,0,0,0,.07-2.41h1.73q0,1-.07,2.41h4.48q-.27,3.57-.27,5.74,0,4.19.67,4.19.44,0,.79-1.25a15.26,15.26,0,0,0,.46-2.91Z" style="fill:#fff"/><path d="M121.3,24a22.59,22.59,0,0,1-3.83,5.57L116,28.42a20.58,20.58,0,0,0,3.76-5.28ZM145.82,9.28H116.43V7.55h8.89a21.09,21.09,0,0,0-1.4-3.08h-5.84V2.77h12a9.13,9.13,0,0,0-1.59-2L130.25,0a29.16,29.16,0,0,1,2.07,2.77h12V4.48h-5.74A29.33,29.33,0,0,1,137,7.55h8.85Zm-3.88,12.36H120.17v-10h21.77Zm-1.83-5.91V13.3H122v2.43Zm0,4.19V17.4H122v2.51Zm-.84,6.17a7.35,7.35,0,0,1-.8,3.38A2.64,2.64,0,0,1,137,30.61a17.22,17.22,0,0,1-3.56.22q-2.32,0-4.6-.08a10.36,10.36,0,0,1-2.76-.3,2.3,2.3,0,0,1-.89-.78,2.26,2.26,0,0,1-.4-1.36V23.24h1.81v4.94a.8.8,0,0,0,.62.79,31.3,31.3,0,0,0,5.24.21,30.49,30.49,0,0,0,3.63-.12q.68-.12,1-1.08a8.42,8.42,0,0,0,.31-2.51Zm-2.68-21.6H125.91a26.76,26.76,0,0,1,1.33,3.08h7.66A27.16,27.16,0,0,0,136.59,4.48ZM134,26l-1.5.91A21.87,21.87,0,0,0,130,23.14l1.47-.77A13,13,0,0,1,134,26Zm12.25,2.65-1.61,1.06a25.16,25.16,0,0,0-4.1-6.24l1.5-.91A36.51,36.51,0,0,1,146.28,28.69Z" style="fill:#fff"/><path d="M161.54.67q-.36,1.59-1.09,3.95l-.72,2.21V31h-1.86V11.72a49.38,49.38,0,0,1-2.7,5l-1-1.9A53.61,53.61,0,0,0,159.73.14ZM185,24.54h-5.08v3.54a3.16,3.16,0,0,1-.68,2.08q-.68.83-3.2.83a14,14,0,0,1-2-.12l-1-1.71q1.57.15,2.75.15a5.42,5.42,0,0,0,1.83-.18.6.6,0,0,0,.36-.57v-4H161.3V23H178V20.9h1.91V23H185Zm.1-4-1.21,1.13q-.53-.72-1.4-1.76L162,21l-.29-1.57,10.15-.53V16.46h-8.43V6.78h8.43V4.38h-9.79V2.77h9.79V.14h1.83V2.77h10.39V4.38H173.69V6.78h8.78v9.67h-1.23A27.35,27.35,0,0,1,185.09,20.51ZM172,28.42l-1.32,1.37a48.75,48.75,0,0,0-6.17-3.37l1.26-1.37A47.4,47.4,0,0,1,172,28.42Zm-.17-17.6V8.32h-6.58v2.49Zm0,4.05V12.32h-6.58v2.55Zm8.78-4.05V8.32h-7v2.49Zm0,4.05V12.32h-7v2.55Zm.22,3.5a11.09,11.09,0,0,0-1.56-1.4l.63-.51h-6.25v2.27Q177.18,18.47,180.87,18.37Z" style="fill:#fff"/><path d="M204.84,8.25a8.12,8.12,0,0,1-1.76.46q-.48,8.87-2.8,13.89.84.8,3.44,3.64l-1.2,1.44q-1.38-1.71-3-3.47a31.21,31.21,0,0,1-5.42,6.8l-1.37-1.27A26,26,0,0,0,198.2,23q-1.47-1.4-4.46-3.9a61.77,61.77,0,0,0,2-9.31,19.14,19.14,0,0,1-2.58.22l-.36-1.83A31.38,31.38,0,0,0,196,7.91q.65-4.44.89-7.64l1.78.22q-.48,4.79-.84,7.21,1.23-.09,3.74-.46L201.68,4l1.66,0q0,1.18-.15,2.87a9,9,0,0,0,1.66-.24ZM201.37,9q-2.53.45-3.81.56a85.59,85.59,0,0,1-1.79,8.92q1.55,1.26,3.16,2.73A38.81,38.81,0,0,0,201.37,9Zm8.68,13.69a25.78,25.78,0,0,1-6,7.31l-1.44-1.18a21.93,21.93,0,0,0,5.88-7ZM223.28,20H214V30.86h-1.81V20h-8.75V18.2h8.75V15.64H207V5.14h-2.43V3.43H207v-3h1.81v3h8.75v-3h1.83v3h3.38V5.14h-3.38V15.64H214V18.2h9.28Zm-5.74-11.5V5.14h-8.75V8.48Zm0,5.38V10.15h-8.75v3.71Zm6,15.12-1.4,1.33A31.26,31.26,0,0,0,216.43,23l1.15-1.23A35.47,35.47,0,0,1,223.59,29Z" style="fill:#fff"/><path d="M261.89,6.15H244.56A42.74,42.74,0,0,1,242,10.08h17.21V28.32a2.24,2.24,0,0,1-1,2.11q-1,.57-4.6.57-1.38,0-2.72-.1L250,29.09q1.59.14,3.4.14a12.46,12.46,0,0,0,3.41-.25.9.9,0,0,0,.54-.9V23.52H240.15a14.71,14.71,0,0,1-3.88,7.64l-1.74-1q4.34-3.86,4.34-13.57,0-1-.05-2.6a43.67,43.67,0,0,1-6.32,5.32l-1.4-1.38a35.93,35.93,0,0,0,11.3-11.74h-11V4.34h12q1-1.81,2-4.14l1.88.53q-1,2.24-1.78,3.61h16.3Zm-4.51,15.65V17.6H240.61a39.61,39.61,0,0,1-.17,4.2Zm0-6v-4H240.71v4Z" style="fill:#fff"/><path d="M278,11q3.06,4.44,3.06,8.24a4.5,4.5,0,0,1-1.23,3.38q-1.23,1.2-4.9,1l-.73-1.85q.87.07,1.76.07a4,4,0,0,0,2.6-.61,3,3,0,0,0,.67-2.28,11.92,11.92,0,0,0-3.16-7.57q1.09-2.92,2.77-8.44h-5.5V30.86h-1.78V1.2h9V3A77.66,77.66,0,0,1,278,11Zm20.37,4.07h-12.7V28.63a40.53,40.53,0,0,0,5.71-2.1l.14,1.93a58.24,58.24,0,0,1-7.25,2.48l-.84-1.78a1.39,1.39,0,0,0,.38-1V1.13h14.56Zm-1.91-8V2.94H285.69V7Zm0,6.22V8.82H285.69v4.44Zm4.61,16.29-1.26,1.57a22.05,22.05,0,0,1-9.9-13.06l1.71-.73a22.42,22.42,0,0,0,1.74,4.41,27.6,27.6,0,0,0,5.37-4.58l1.4,1.18a38.55,38.55,0,0,1-5.88,4.91A17.26,17.26,0,0,0,301.09,29.55Z" style="fill:#fff"/><path d="M320.58,1A29.64,29.64,0,0,1,309.46,16.3l-1.4-1.4A27,27,0,0,0,318.75.34Zm15.89,29.34-1.64.94a30.08,30.08,0,0,0-2.17-4.44A120.39,120.39,0,0,1,313,30.23l-.53-1.78q5.35-6.29,10.22-18l1.78.77a79.57,79.57,0,0,1-9.26,16.92,97.16,97.16,0,0,0,16.58-3,67.68,67.68,0,0,0-4.27-6.48l1.62-1A66.18,66.18,0,0,1,336.48,30.32Zm2.61-15.69-1.18,1.54q-6.29-4.1-10-13.5h-2.34V.77h3.78Q332.38,10.25,339.09,14.63Z" style="fill:#fff"/><path d="M375.78,28.32a2.38,2.38,0,0,1-.76,2q-.76.61-4.13.61-1.45,0-3.73-.14l-.63-1.95q3,.21,4.7.21a6.36,6.36,0,0,0,2.24-.23,1,1,0,0,0,.44-1V2.73H347V.94h28.81ZM370.21,9.21H348l0-1.76h22.15ZM367.8,24.39H350.26V13.76H367.8Zm-1.9-1.81v-7H352.2v7Z" style="fill:#fff"/><path d="M5.41,65a19.91,19.91,0,0,1-4.32,4.26L0,68a20.17,20.17,0,0,0,4.23-4ZM16.6,56H.09V54.61H7.75a11.69,11.69,0,0,0-.88-1.86h-5V45.1H14.74v7.65H8.64q.32.69.78,1.86H16.6Zm-2.08,7H9.21v5.46a1.84,1.84,0,0,1-.65,1.58,3.64,3.64,0,0,1-2.13.48H5.26l-.51-1.44q1.49,0,2.21,0t.72-.89v-5.2H2.2V57.88H14.52Zm-1.35-15V46.54H3.43v1.55Zm0,3.21V49.6H3.43v1.7ZM13,61.63V59.28H3.72v2.34Zm2,6.5L13.68,69A21.34,21.34,0,0,0,11.07,65l1.26-.86A18.84,18.84,0,0,1,15,68.13Zm11.47-6a30.24,30.24,0,0,1-9.93,8.54l-1-1.29q6.72-3.71,9.76-8.42Zm-.79-16.83A25.8,25.8,0,0,1,17,52l-1-1.26q6.11-3.06,8.55-6.52Zm.31,8.1a27.46,27.46,0,0,1-9,7.08l-.92-1.32a26.52,26.52,0,0,0,8.79-6.84Z" style="fill:#fff"/><path d="M65.12,54.81H39V53.32H47.2A18.25,18.25,0,0,0,45,48.85H40.46V47.29H51.55a21.2,21.2,0,0,0-1.32-2.52l1.51-.54a26.92,26.92,0,0,1,1.49,3.06h10.5v1.57H59.05a29.87,29.87,0,0,1-2,4.47h8.07ZM61,70.62H59.48V68.67H44.71v1.95H43.16V57.48H61Zm-1.52-8.45V59H44.71v3.12Zm0,5V63.69H44.71v3.43ZM57.38,48.85H46.85q1.25,2.49,2.07,4.47h6.3A21.9,21.9,0,0,0,57.38,48.85Z" style="fill:#fff"/><path d="M88.09,51.24a6.9,6.9,0,0,1-1.51.4q-.41,7.6-2.4,11.91.72.69,2.94,3.12l-1,1.23q-1.19-1.46-2.61-3a26.73,26.73,0,0,1-4.64,5.83l-1.17-1.08a22.3,22.3,0,0,0,4.72-5.79q-1.26-1.2-3.82-3.34a53,53,0,0,0,1.71-8,16.43,16.43,0,0,1-2.21.19l-.31-1.57a26.73,26.73,0,0,0,2.72-.23q.56-3.81.76-6.55l1.52.19q-.41,4.1-.72,6.18,1.05-.07,3.21-.4l.12-2.8,1.42,0q0,1-.13,2.46a7.65,7.65,0,0,0,1.42-.21Zm-3,.66q-2.17.38-3.27.48A73.17,73.17,0,0,1,80.32,60q1.33,1.08,2.71,2.34A33.26,33.26,0,0,0,85.12,51.9Zm7.44,11.73a22.1,22.1,0,0,1-5.13,6.27l-1.23-1a18.8,18.8,0,0,0,5-6Zm11.34-2.34h-8v9.33H94.39V61.29h-7.5V59.77h7.5v-2.2H89.93v-9H87.84V47.11h2.08V44.5h1.55v2.61H99V44.5h1.57v2.61h2.9v1.46h-2.9v9h-4.6v2.2h8ZM99,51.43V48.57h-7.5v2.86ZM99,56V52.87h-7.5V56Zm5.19,13L103,70.15A26.78,26.78,0,0,0,98,63.85l1-1.05A30.37,30.37,0,0,1,104.16,69Z" style="fill:#fff"/><path d="M125.86,68.55a2.39,2.39,0,0,1-.49,1.53,2.11,2.11,0,0,1-1.75.62h-1.14l-.42-1.44H124a.5.5,0,0,0,.31-.16.44.44,0,0,0,.18-.29V64.69a35,35,0,0,1-4.06,2l-.41-.75a14.15,14.15,0,0,1-2,4.73L116.84,70A14.72,14.72,0,0,0,119,62.37v-6h6.9Zm2-12.6h-1.44V54.24h-8V56H117V52.84h1.55V45.19h8.31v7.65h1.05Zm-2.49-7.1V46.6h-5.46v6.24h1.83v-4ZM124.45,63V57.79h-4.12V59.5a35.1,35.1,0,0,1,3.6,1.35l-.66,1.29A31.36,31.36,0,0,0,120.34,61q-.06,2.71-.26,4.32A33.61,33.61,0,0,0,124.45,63Zm.89-10.14V50.2h-2.18v2.64Zm17.34,17.24h-15V68.67h4.58a13.84,13.84,0,0,0-1.11-3.15h-1.49v-5H141v5h-1.77q-.73,1.9-1.29,3.15h4.72Zm-.18-11.25H128.29V57.45h14.22Zm-.66-3.38H129.22V46.92H133V44.46h1.32v2.46h2.49V44.46h1.33v2.46h3.72ZM133,50.52V48.25h-2.46v2.27Zm0,3.66v-2.4h-2.46v2.4Zm6.55,10V61.92h-8.38v2.26Zm-1.92,1.35h-4.89l1.11,3.15h2.52A27,27,0,0,0,137.62,65.52Zm-.82-15V48.25h-2.49v2.27Zm0,3.66v-2.4h-2.49v2.4Zm3.69-3.66V48.25h-2.36v2.27Zm0,3.66v-2.4h-2.36v2.4Z" style="fill:#fff"/><path d="M165.11,67.29q-6.18,2.24-9.1,3.06l-.6-1.49a12.89,12.89,0,0,0,1.32-.4V56.91h1.51V68a15.79,15.79,0,0,0,2-.63V54.55H156.7V45.48h7.21v9.07h-2.14v4.13h2.74v1.51h-2.74v6.62a26.61,26.61,0,0,0,3.34-1.2ZM162.31,53v-6h-4v6Zm19.5,1.48-1,1.26A12.89,12.89,0,0,1,174.58,49h-2.43A17.05,17.05,0,0,1,166,55.65l-1.29-1.1A16,16,0,0,0,170.35,49h-4.92V47.52h5.67a18.77,18.77,0,0,0,.94-3.06l1.55.34a20.59,20.59,0,0,1-.78,2.72h8.39V49h-5A11.5,11.5,0,0,0,181.81,54.49Zm-.86,4.85H171.1l-1,3.06h8.94a27.21,27.21,0,0,1-.66,5.54,3.92,3.92,0,0,1-1.32,2.34,7.47,7.47,0,0,1-3.47.52q-1.27,0-2.86-.1l-.4-1.58q2.05.09,5.16.09a1.23,1.23,0,0,0,1.12-.77,17.73,17.73,0,0,0,.77-4.53H168l1.38-4.57h-3.62V57.88h15.15ZM177.1,55h-7.59V53.53h7.59Z" style="fill:#fff"/><path d="M220.62,62.34l-.89,1.41q-6.93-2.61-10.3-7.19H205.3a22.69,22.69,0,0,1-10.24,7l-.78-1.41a20.76,20.76,0,0,0,9.1-5.55h-6.49V45.1H218V56.56h-6.59Q214.19,60.19,220.62,62.34Zm-17.55-1.66q.42,7.72-6.53,10l-1-1.35a9.77,9.77,0,0,0,3.21-1.56,6.56,6.56,0,0,0,2.12-2.45,11.73,11.73,0,0,0,.65-4.64ZM206.64,50V46.6h-8.19V50Zm0,5V51.49h-8.19V55Zm9.79-5V46.6h-8.19V50Zm0,5V51.49h-8.19V55Zm-3.66,15.6h-1.63v-10h1.63Z" style="fill:#fff"/><path d="M247.25,47.65h-6v1.92h4.89v5h-4.89v.63a30,30,0,0,1,4.41,2.24L245,58.77a30.88,30.88,0,0,0-3.75-2.07v3.06H239.8V56.1a28.47,28.47,0,0,1-5.64,3.78l-1-1.26a22.46,22.46,0,0,0,6.18-4.07h-4.67v-5h5.16V47.65h-6.42V46.2h6.42V44.59h1.46V46.2h6ZM259.3,70.24H233.2V68.82h5.26V64.09H240v4.73h5.7V62.49H233.92V61.08H258.7v1.41H247.25V64.8h10.34v1.35H247.25v2.67H259.3ZM239.8,53.1V50.95h-3.6V53.1Zm4.86,0V50.95h-3.4V53.1Zm14.78,5.32-.81,1.41a15,15,0,0,1-5.3-2.7,28.22,28.22,0,0,1-5.77,2.75l-1.07-1.29A20.73,20.73,0,0,0,252.28,56a12.26,12.26,0,0,1-2.07-3.46l1.35-.66A9.88,9.88,0,0,0,253.49,55a9.26,9.26,0,0,0,2.64-5.76h-4.83a16.7,16.7,0,0,1-3.41,4.06l-1.08-1a16.6,16.6,0,0,0,5.13-7.9l1.35.57a13.61,13.61,0,0,1-1.16,2.83h7.08v1.44h-1.6q-.66,4.69-3.06,6.81A13.15,13.15,0,0,0,259.45,58.42Z" style="fill:#fff"/><path d="M298.32,53.1l-1,1.32a35.7,35.7,0,0,1-12.22-8q-4.06,4.09-12.14,8l-1-1.35a36.34,36.34,0,0,0,13.11-9l1.52.6a1.77,1.77,0,0,1-.44.66A35.28,35.28,0,0,0,298.32,53.1Zm-3.78,17.65H293v-2H277.27v2h-1.63V58.83h18.9ZM293,67.18V60.42H277.27v6.75Zm-.06-12.51H277.36v-1.6H292.9Z" style="fill:#fff"/><path d="M337,61H324.8v9.84h-1.61V61H310.91V59.4h12.28V46.8H311.66V45.22h24.7V46.8H324.8V59.4H337Zm-18.12-4.41-1.46.75a28,28,0,0,0-3.78-7l1.29-.72A24.74,24.74,0,0,1,318.93,56.59Zm15.66-6.42a22.52,22.52,0,0,1-4.23,7l-1.49-.81a22.18,22.18,0,0,0,4.26-6.84Z" style="fill:#fff"/><path d="M375.78,55.68l-1.29,1a24.45,24.45,0,0,0-2.52-3A131.87,131.87,0,0,1,350.31,56l-.44-1.44q6.67-5.19,9.3-10.24l1.61.54a37.41,37.41,0,0,1-8.1,9.42,103.49,103.49,0,0,0,18-2.07,48.72,48.72,0,0,0-4.83-4.53l1.38-1A64.17,64.17,0,0,1,375.78,55.68Zm-2.87,15.07h-1.66V68.89H353.94v1.82H352.3V59h20.61Zm-1.66-3.46V60.57H353.94v6.72Z" style="fill:#fff"/></g></svg>