<svg xmlns="http://www.w3.org/2000/svg" viewBox="0 0 30.14 30.14"><title>icon-youtube</title><g id="圖層_6" data-name="圖層 6"><path d="M12.57,11.45,19,15.08l-6.41,3.64ZM30.14,3.23V26.91a3.23,3.23,0,0,1-3.23,3.23H3.23A3.23,3.23,0,0,1,0,26.91V3.23A3.23,3.23,0,0,1,3.23,0H26.91A3.23,3.23,0,0,1,30.14,3.23ZM27.32,15.09a32.36,32.36,0,0,0-.51-5.93A3.07,3.07,0,0,0,24.64,7c-1.9-.52-9.57-.52-9.57-.52S7.41,6.46,5.5,7A3.07,3.07,0,0,0,3.34,9.16a32.25,32.25,0,0,0-.51,5.93A32.3,32.3,0,0,0,3.34,21,3,3,0,0,0,5.5,23.17c1.9.51,9.57.51,9.57.51s7.66,0,9.57-.52A3,3,0,0,0,26.81,21,32.27,32.27,0,0,0,27.32,15.09Z" style="fill:#fff"/></g></svg>