<svg xmlns="http://www.w3.org/2000/svg" viewBox="0 0 18.5 18.48"><title>icon-phone</title><g id="圖層_6" data-name="圖層 6"><path d="M18.49,14.59a.89.89,0,0,1-.27.78L15.61,18a1.44,1.44,0,0,1-.46.33,1.92,1.92,0,0,1-.56.18h-.37A8.84,8.84,0,0,1,13,18.36a9.12,9.12,0,0,1-2-.62,17.3,17.3,0,0,1-2.73-1.5A20.51,20.51,0,0,1,5,13.49a21.34,21.34,0,0,1-2.27-2.58A18.19,18.19,0,0,1,1.28,8.63a12,12,0,0,1-.82-1.9A10.12,10.12,0,0,1,.08,5.26a4.72,4.72,0,0,1-.08-1c0-.23,0-.37,0-.39A2,2,0,0,1,.2,3.34a1.42,1.42,0,0,1,.33-.46L3.14.27A.87.87,0,0,1,3.76,0a.73.73,0,0,1,.45.15,1.38,1.38,0,0,1,.33.36l2.1,4a1,1,0,0,1,.1.69,1.23,1.23,0,0,1-.33.63l-1,1a.31.31,0,0,0-.07.13.48.48,0,0,0,0,.15A3.56,3.56,0,0,0,5.7,8a8.74,8.74,0,0,0,.72,1.14,12.8,12.8,0,0,0,1.39,1.56,12.83,12.83,0,0,0,1.56,1.4,9.12,9.12,0,0,0,1.15.73,2.93,2.93,0,0,0,.71.28l.24.05.13,0a.31.31,0,0,0,.13-.07l1.12-1.14a1.21,1.21,0,0,1,.82-.31,1,1,0,0,1,.53.12h0L18,13.94A1,1,0,0,1,18.49,14.59Z" style="fill:#f12433;opacity:0.8"/></g></svg>