<svg xmlns="http://www.w3.org/2000/svg" viewBox="0 0 332.88 70.3"><defs><style>.cls-1{fill:#221e1f;}</style></defs><title>logo</title><g id="圖層_6" data-name="圖層 6"><path class="cls-1" d="M10.55,16.6c.19,0,.3.12.33.37a5.17,5.17,0,0,1-.12.7q-1.48,5.77-2.51,9.89Q6.84,33,5.77,36.5q-.21.7-.49.7t-1.15-.78Q2.1,34,.7,32.14q-.7-.78-.7-1,0-.37.33-.37a8.47,8.47,0,0,1,1.57.45A10.83,10.83,0,0,0,4,31.77q.49,0,.82-.74.58-1.48,2.39-6.26,1.4-3.58,3.09-7.79C10.37,16.73,10.46,16.6,10.55,16.6ZM1,13.35a4.35,4.35,0,0,1,.78.16,46.92,46.92,0,0,1,4.78,1.81,1.54,1.54,0,0,1,.82.78,8.85,8.85,0,0,1-.29,2.31q-.33,1-.82,1a.91.91,0,0,1-.66-.37L2.51,15.74A7.41,7.41,0,0,1,.87,13.51.15.15,0,0,1,1,13.35ZM5,3.46a3.58,3.58,0,0,1,.78.16,43.81,43.81,0,0,1,4.9,1.94,1.49,1.49,0,0,1,.91.87,8,8,0,0,1-.33,2.27q-.37,1-.82,1a1,1,0,0,1-.66-.37Q8.32,7.79,6.59,5.89A8.52,8.52,0,0,1,4.82,3.63.15.15,0,0,1,5,3.46Zm11.87.45q.41,0,1.69,1.73a4.76,4.76,0,0,1,1.07,2.43q0,.33-.21.41a7.33,7.33,0,0,0-1.19,1.85c-.17.3-.33.58-.5.82q1.77-.21,2.55-.37l1.48-.25V9.19a29.5,29.5,0,0,0-.62-6.1A18.59,18.59,0,0,1,20.31.45q0-.45.5-.45.33,0,2.14,1.73t1.94,2.35a4.13,4.13,0,0,1-.45,1.11,14,14,0,0,0-.49,3.91v1l1.81-.41a6.29,6.29,0,0,0,1.61-.45,2.31,2.31,0,0,1,.7-.25,2.8,2.8,0,0,1,1.65.7q.95.95.95,1.28a.29.29,0,0,1-.33.33q-2.93.41-6.39,1v5.4l4.66-.62a14.68,14.68,0,0,0,2.84-.58,5.72,5.72,0,0,1,1.24-.29,3.2,3.2,0,0,1,1.85.78q1.07,1,1.07,1.36c0,.25-.11.37-.33.37q-5.6.49-12.48,1.32-6.51.7-8,1.07a2.88,2.88,0,0,1-.87.21,4.29,4.29,0,0,1-1.77-.82Q11,19.74,11,19.45c0-.22.18-.33.54-.33q5.27-.37,7.25-.7,1.57-.16,2.93-.37V12.69a24.78,24.78,0,0,0-2.93.58,1,1,0,0,1-.54.25,3.57,3.57,0,0,1-1.57-.78q-.58.82-1.07,1.4a22.35,22.35,0,0,1-3.13,3.09c-.17.16-.26.25-.29.25a.15.15,0,0,1-.17-.17A1,1,0,0,1,12.2,17a33.17,33.17,0,0,0,2-4.08A33.63,33.63,0,0,0,16,7.62a12.46,12.46,0,0,0,.45-3.21Q16.48,3.91,16.85,3.91Zm-1.32,18q.21,0,.7.78a7.75,7.75,0,0,1,.95,1.85l9.06-1.15a3,3,0,0,0,1.9-1q.95-1.24,1.4-1.24T31,22q1.15,1.2,1.15,1.48a2.54,2.54,0,0,1-.7,1.32,3.58,3.58,0,0,0-.78,1.81L29.79,33l.29.21q.95.74.95,1t-1,.37l-12,1v1.32q0,1.81-.62,1.81-.37,0-1.2-1.32a5.45,5.45,0,0,1-.78-2.64,4,4,0,0,1,.17-.7,13.3,13.3,0,0,0,.37-3.42,35,35,0,0,0-.5-6.88q-.21-1.36-.21-1.52Q15.2,21.88,15.53,21.88Zm2.39,11.78a76.56,76.56,0,0,0,9.64-1.07h.08l.49-7.46L17.47,26.29Q17.8,29,17.92,33.66Z"/><path class="cls-1" d="M45.88,18.62q.25,0,.78.82a12,12,0,0,1,1,2.23,1.27,1.27,0,0,1,0,.29l6.51-1a3.33,3.33,0,0,0,1.94-1.07q.91-1.24,1.36-1.24t1.44.95q1.23,1.2,1.24,1.52a2.71,2.71,0,0,1-.78,1.28,3.33,3.33,0,0,0-.7,1.85l-1.11,8.32a.46.46,0,0,0,.17.16q.95.74.95,1t-.87.29l-9.23.91v1.32q0,2-.78,2-.37,0-1.2-1.4a6.41,6.41,0,0,1-.78-2.93,7.33,7.33,0,0,1,.12-.78,21.52,21.52,0,0,0,.37-4.28,39.89,39.89,0,0,0-.58-8q-.29-1.57-.29-1.77Q45.51,18.62,45.88,18.62ZM48.6,33a56.64,56.64,0,0,0,6.88-.95l.74-9.31-8.2,1Q48.43,27.11,48.6,33Zm4-31.35q.29,0,.82.7a9.52,9.52,0,0,1,1,1.81,3.09,3.09,0,0,1,.12.54L65.16,3.46a3.31,3.31,0,0,0,1.89-1.07Q68,1.15,68.41,1.15t1.44.95q1.24,1.2,1.24,1.52a2.75,2.75,0,0,1-.74,1.28,3.42,3.42,0,0,0-.78,1.85L68,13.6l.29.17q.95.74.95,1t-1.11.33q-7,.49-12.77.87v.12q0,2-.78,2-.41,0-1.2-1.36a6.08,6.08,0,0,1-.82-2.88,2.41,2.41,0,0,1,.17-.58,10.57,10.57,0,0,0,.37-3,28.31,28.31,0,0,0-.58-6.67,13.35,13.35,0,0,1-.29-1.52C52.26,1.8,52.37,1.65,52.59,1.65Zm2.76,12.44q7.62-.49,10.38-1a.77.77,0,0,0,.25,0l1.07-7.83L54.9,6.47Q55.23,9.31,55.35,14.09ZM62,18.25q.25,0,.78.87a10.88,10.88,0,0,1,1,2.18.68.68,0,0,1,0,.17l7-1a3.14,3.14,0,0,0,1.9-1.07q.95-1.28,1.4-1.28t1.44,1q1.15,1.15,1.15,1.48a2.57,2.57,0,0,1-.7,1.28,3.56,3.56,0,0,0-.78,1.81l-1.19,7.75.45.29q.95.74.95,1.07,0,.16-.91.29-5.36.41-9.85.87v1.61q0,2-.78,2-.37,0-1.19-1.36A6.33,6.33,0,0,1,62,33.29a8.31,8.31,0,0,1,.12-.82,18.49,18.49,0,0,0,.33-4.12,42.06,42.06,0,0,0-.54-7.83Q61.7,19,61.7,18.79C61.7,18.43,61.81,18.25,62,18.25ZM64.71,32A60,60,0,0,0,72,31.15l.82-8.9-8.65,1Q64.58,26.45,64.71,32Z"/><path class="cls-1" d="M100.24.12q.58,0,1.48,1a3.88,3.88,0,0,1,1,1.81.66.66,0,0,1-.54.33,20,20,0,0,0-3,.91A33,33,0,0,1,94,5.77a4.13,4.13,0,0,1-.7.08,5.72,5.72,0,0,1,.33,1.52v4.94l5.81-2.76a2.8,2.8,0,0,0-.33-.41,8.64,8.64,0,0,1-1.48-2.39.15.15,0,0,1,.16-.16,2.67,2.67,0,0,1,.7.21,38.55,38.55,0,0,1,4.28,2.47,2,2,0,0,1,.78,1.11,7.67,7.67,0,0,1-.25,1.94q-.33.82-.78.82-.25,0-.58-.41-.91-1.11-1.94-2.43a81.54,81.54,0,0,0-6.8,5.48.77.77,0,0,1-.54.33,6.12,6.12,0,0,1-1.81-.58q-1.36-.82-1.36-1.24l.29-.12,1.73-.82a1.36,1.36,0,0,0,.12-.54V8.08a21.91,21.91,0,0,0-.21-2.84A17.39,17.39,0,0,0,91.22,3c0-.36.1-.54.29-.54s.6.6,1.24,1.81q.25.58.41,1a41.82,41.82,0,0,0,4-2.35A10.09,10.09,0,0,0,99.79.58C100,.27,100.13.12,100.24.12ZM95,15q.29,0,.82.82a7.62,7.62,0,0,1,.62,1.15l13.76-1.61a1.82,1.82,0,0,0,1.24-.54q.7-.78.91-.78a3.51,3.51,0,0,1,1.57.62q1.24.78,1.24,1.19t-1,1.36a4.71,4.71,0,0,0-.62,2.39q-.41,3.58-.49,6.51a27.88,27.88,0,0,1-.62,5.07q-.37,1.28-.91,1.28t-1.24-1.52c-.08-.25-.17-.47-.25-.66a1.36,1.36,0,0,1-.33,0q-4.66.37-8.73.78A9.18,9.18,0,0,1,102,33.21a5.33,5.33,0,0,1,.37,1.73c0,.08-.14.18-.41.29q-.91.41-1.94,1a40.27,40.27,0,0,1-3.91,1.9,35.93,35.93,0,0,1-4,1.32.67.67,0,0,1-.29.08q-.33,0-.33-.49s0-.07.12-.12a32.38,32.38,0,0,0,5.4-4,13.26,13.26,0,0,0,3-3.75q-1.15.12-2.18.21-.12,1.94-.87,1.94-.37,0-1.15-1.4A6.15,6.15,0,0,1,95,29a4,4,0,0,1,.17-.7,14.85,14.85,0,0,0,.33-3.67,37.82,37.82,0,0,0-.54-7.46q-.25-1.44-.25-1.65Q94.68,15,95,15Zm2.8,14.46a88,88,0,0,0,9.44-1.11q1-.12,1.15-.12a3.94,3.94,0,0,1,1.28.7V28.8A3.1,3.1,0,0,1,110,28a7.53,7.53,0,0,0,.58-2.51q.53-5.77.74-8.45L96.94,18.66A21.29,21.29,0,0,1,97.27,21a52.3,52.3,0,0,0,8.28-1.28c.58-.11.91-.17,1-.17a3.88,3.88,0,0,1,1.15.62q.82.62.82.91t-.91.33q-5.56.58-10.14,1.19.08,1.15.12,2.47A57.16,57.16,0,0,0,106,23.9a9.74,9.74,0,0,1,1-.21,4.09,4.09,0,0,1,1.2.66q.74.58.74.82t-.87.37L97.69,26.7Q97.73,28,97.77,29.42ZM117.87,1.15a1.6,1.6,0,0,1,1.28.66Q120,2.64,120,3q0,.62-.33.78a1.2,1.2,0,0,0-.5.62,71.28,71.28,0,0,1-2.1,7.42,14.19,14.19,0,0,1-1.4,2.72,1.32,1.32,0,0,1-.78.66c-.08,0-.21-.14-.37-.41q-1.36-2.18-3.38-5.19a1,1,0,0,1-.21-.37.15.15,0,0,1,.17-.17.66.66,0,0,1,.29.08q1.32.49,2.84,1.11a1.17,1.17,0,0,0,.66.17c.11,0,.25-.17.41-.49a20.62,20.62,0,0,0,.91-2.8q.33-1.36.58-2.72l-6.88.78c.14.22.27.43.41.62a4.54,4.54,0,0,1,.78,1.94,2,2,0,0,1-.21.49A14.51,14.51,0,0,0,110,9.81a10.63,10.63,0,0,1-1.65,2.35,14.69,14.69,0,0,1-5.23,3.75,1.57,1.57,0,0,1-.62.21c-.22,0-.33-.1-.33-.29s.08-.15.25-.29a18.54,18.54,0,0,0,3.46-3.71,13,13,0,0,0,1.89-3.58,13.23,13.23,0,0,0,.66-2.93q-1.15.12-2,.29a2.45,2.45,0,0,1-.66.12,2,2,0,0,1-1.15-.54q-1-.74-1-.95a.29.29,0,0,1,.33-.33L115.11,3a2.34,2.34,0,0,0,1.81-.91Q117.5,1.15,117.87,1.15Zm-11,30.32a4.73,4.73,0,0,1,1.2.21,60.25,60.25,0,0,1,6,1.9q1.15.37,1.36.87a14.93,14.93,0,0,1-.25,2.68c-.22.93-.48,1.41-.78,1.44s-.37-.16-.54-.49q-1.81-3-6.67-5.89-.5-.37-.5-.54A.15.15,0,0,1,106.87,31.48Z"/><path class="cls-1" d="M138.49,1.48c.19,0,.44.23.74.7A7.83,7.83,0,0,1,140.14,4a4.12,4.12,0,0,1,.12.62L152,3A2.72,2.72,0,0,0,153.74,2Q154.6.95,155,.95t1.32.91q1.11,1,1.11,1.28t-.7,1.11A3.07,3.07,0,0,0,156,5.89l-.91,7.33.33.25q.74.58.74.82t-1.15.37l-11,.91.25.58a4.6,4.6,0,0,1,.54,1.94,9,9,0,0,1-1.24,1.44l11.91-1.11a2.93,2.93,0,0,0,2.27-1.07q.74-1.24,1.2-1.24a1.91,1.91,0,0,1,1.57.91q1.11,1,1.11,1.4a1,1,0,0,1-.54,1,1.62,1.62,0,0,0-.74,1.07,128.73,128.73,0,0,1-3.21,13,26.16,26.16,0,0,1-2.14,4.9q-.58,1-1.15,1.07c-.08,0-.21-.17-.37-.49q-1.4-2.93-3.54-6.92a1.84,1.84,0,0,1-.16-.45c0-.22.05-.33.16-.33a.45.45,0,0,1,.25.08q1.4.86,3,2a1,1,0,0,0,.66.21q.33,0,.78-1a36.58,36.58,0,0,0,1.89-6q.66-3,1.11-6.39l-5.11.58c.14.19.3.44.49.74a4.86,4.86,0,0,1,.82,2,2,2,0,0,1-.16.7,8,8,0,0,0-1.28,1.61,32.16,32.16,0,0,1-3.26,4.33,29.24,29.24,0,0,1-4.61,4.16,41.61,41.61,0,0,1-7,3.87,3.13,3.13,0,0,1-.95.37.29.29,0,0,1-.33-.33q0-.16.58-.54a33.55,33.55,0,0,0,4-2.64,28.47,28.47,0,0,0,4.62-4,27.77,27.77,0,0,0,4-5.19,14,14,0,0,0,1.85-5l-4,.41a4.94,4.94,0,0,1-.62,0l.12.25a4.91,4.91,0,0,1,.49,1.94A18.11,18.11,0,0,1,145,25.87a25.61,25.61,0,0,1-3.5,3.13,34,34,0,0,1-5.11,3,6.81,6.81,0,0,1-1.73.74c-.22,0-.33-.07-.33-.21s.1-.14.29-.25q2.23-1.52,4.2-3.09a32.06,32.06,0,0,0,4.08-4.41,9.33,9.33,0,0,0,1.85-3.25l-.66.12a3.51,3.51,0,0,1-.87.17,2.42,2.42,0,0,1-1.36-.58q-1.48,1.57-2.68,2.6a36.24,36.24,0,0,1-5,3.17,6.24,6.24,0,0,1-1.69.78c-.19,0-.29-.06-.29-.17s.08-.18.25-.29a42.63,42.63,0,0,0,4-3.25,29.34,29.34,0,0,0,4-4.57,12.14,12.14,0,0,0,2-3.75.17.17,0,0,1,0-.12q-.82.08-1.52.12v.29q0,1.81-.7,1.81-.37,0-1.15-1.28a5.08,5.08,0,0,1-.82-2.64,2.43,2.43,0,0,1,.21-.62,11.84,11.84,0,0,0,.41-3.34,31.39,31.39,0,0,0-.54-6.76q-.25-1.32-.25-1.48A.29.29,0,0,1,138.49,1.48ZM141,14.21A101.64,101.64,0,0,0,152.83,13a.57.57,0,0,0,.25,0l.7-8.36L140.51,6.3q.16,1.28.25,2.93a51.49,51.49,0,0,0,8.16-1.15,8.82,8.82,0,0,1,1-.21,4.09,4.09,0,0,1,1.2.66q.78.58.78.82t-.91.37l-10.14,1.15Q140.92,12.48,141,14.21Z"/><path class="cls-1" d="M203.32,5.56a5.58,5.58,0,0,1,2,1.19q1.48,1.15,1.48,1.48c0,.22-.18.33-.54.33q-6.67.33-17.18,1.07a40.63,40.63,0,0,1-3,5.89,1.4,1.4,0,0,1-.21.33l9.48-1.07a2.32,2.32,0,0,0,1.32-.87q1.32-1.57,1.69-1.57a6.06,6.06,0,0,1,1.61.91q1.19,1,1.19,1.52a5.28,5.28,0,0,1-1.28,1.94,3.78,3.78,0,0,0-.37,1.9v19a5.35,5.35,0,0,1-.33,1.19q-.21.5-.45,1a1,1,0,0,1-.87.54c-.19,0-.4-.15-.62-.45a57.22,57.22,0,0,0-4.82-6.51.74.74,0,0,1-.21-.45.33.33,0,0,1,.37-.37,1.44,1.44,0,0,1,.54.29,11.63,11.63,0,0,0,3.09,1.57.44.44,0,0,0,.49-.33,8.75,8.75,0,0,0,.21-1A9.69,9.69,0,0,0,197,31.6V16.73l-10.84,1.11a10,10,0,0,1,.62,3.25v.82a35,35,0,0,0,5-.87,6.28,6.28,0,0,1,.66-.12,4.42,4.42,0,0,1,1.36.74q.95.74.95,1.07,0,.17-.66.25-4,.45-7.29.91V27a36,36,0,0,0,5.73-.87l.7-.12a4.45,4.45,0,0,1,1.44.74q.87.74.87,1.07,0,.16-.66.29-4.41.41-8.08.87-.08,4.61-.16,5.93a17.36,17.36,0,0,1-.29,2.6Q186.1,39,185.52,39T184,37.37a4.48,4.48,0,0,1-.7-2.43q0-.21.62-.74a2.18,2.18,0,0,0,.62-1.19q.25-2.43.25-9.31a40.76,40.76,0,0,0-.33-5.69,24.26,24.26,0,0,1-2.35,2.76,27.56,27.56,0,0,1-4.74,3.75A30.85,30.85,0,0,1,172.88,27a1.55,1.55,0,0,1-.58.16c-.19,0-.29-.11-.29-.33s.19-.25.49-.41a41.21,41.21,0,0,0,5.56-4.08,25.67,25.67,0,0,0,4.33-5.15,27.18,27.18,0,0,0,3-5.93c.19-.47.36-.91.49-1.32q-7.83.62-8.57.78a6.73,6.73,0,0,1-1.07.12,3.91,3.91,0,0,1-2.1-1q-.82-.66-.82-1.07,0-.66.95-.66,3,0,12.4-.54.12-.37.21-.7a7.72,7.72,0,0,0,.45-2.23q0-.45-.08-1.9T187,.62c0-.41.18-.62.54-.62s.92.63,2.1,1.9,1.69,2,1.69,2.51a1.32,1.32,0,0,1-.37.74A19.28,19.28,0,0,0,190,7.33q9.85-.82,11.95-1.52A4.71,4.71,0,0,1,203.32,5.56Z"/><path class="cls-1" d="M227.53,2.27q.41,0,1.57,1t1.11,1.36q0,.21-.62.74a15.92,15.92,0,0,0-2.47,3.54,15.45,15.45,0,0,0-1.69,3.75,2.88,2.88,0,0,0,.82,1.48,9.76,9.76,0,0,1,2.27,3.63,10,10,0,0,1,.54,3.34,10.88,10.88,0,0,1-1.28,4.74Q226.66,28,225.88,28c-.14,0-.32-.15-.54-.45a53.91,53.91,0,0,0-3.21-5,3.54,3.54,0,0,1-.33-.7c0-.22.05-.33.17-.33a1.14,1.14,0,0,1,.58.21A12.16,12.16,0,0,0,225.26,23a1.1,1.1,0,0,0,.91-.49,3.63,3.63,0,0,0,.74-2.31,8.34,8.34,0,0,0-.78-3.46,8,8,0,0,0-2.1-2.92,1.28,1.28,0,0,1-.41-.7,2.42,2.42,0,0,1,.12-.66L226,6.14l-4.7.87a6.76,6.76,0,0,1,.12,1.24q0,21.92-.16,26a16,16,0,0,1-.33,2.68q-.25,1.48-.82,1.48t-1.52-1.69a5.16,5.16,0,0,1-.62-2.47,4.07,4.07,0,0,1,.58-1.44,7.29,7.29,0,0,0,.62-2.6q.25-5,.25-19.36A38.14,38.14,0,0,0,219.08,5l-.45-2.88c0-.19.16-.29.49-.29s.73.88,1.52,2.64a5.91,5.91,0,0,1,.25.74l4.2-.58a2.27,2.27,0,0,0,1.52-1.24Q227.32,2.27,227.53,2.27Zm16.15-.45a2.41,2.41,0,0,1,1.36.82q1.15,1,1.15,1.28t-.78,1.19a2.79,2.79,0,0,0-.7,1.65l-1.44,9q.95.74.95,1t-.91.41q-3.75.37-7.09.74a73.53,73.53,0,0,0,3.67,6.51,47.46,47.46,0,0,0,3.5-3.63,8.65,8.65,0,0,0,1.89-3c.14-.19.26-.29.37-.29s.66.7,1.24,2.1a6.66,6.66,0,0,1,.58,2.31c0,.19-.21.32-.62.37s-1.07.44-1.73.74l-4.74,2.22,1,1.57q3.87,5.81,5.19,6.63t5.19,1.52c.3,0,.45.14.45.33a.41.41,0,0,1-.29.45q-6.51,1.48-7,1.48a.8.8,0,0,1-.74-.58q-1.44-3-4-7.42-4.2-7.87-6.14-11-.49.08-1,.12V33.41l5.23-3.54a1.33,1.33,0,0,1,.58-.21.29.29,0,0,1,.33.33q0,.21-.49.7a88.41,88.41,0,0,0-6.26,7.25c-.17.3-.33.45-.5.45a5.58,5.58,0,0,1-1.9-.7q-1.4-.86-1.4-1.28a1.79,1.79,0,0,1,.41-.95,8.21,8.21,0,0,0,1-1.32q.87-.87.87-4.53V7.87a22.71,22.71,0,0,0-.25-3.09,15.07,15.07,0,0,0-.37-2.51c0-.3.16-.45.49-.45q.25,0,1.28,1.94a16.09,16.09,0,0,1,.58,1.52l8-1.52a2.73,2.73,0,0,0,1.69-.87Q243.27,1.81,243.68,1.81ZM233.09,6.92a1.22,1.22,0,0,1,0,.29v3.3a22.32,22.32,0,0,0,4.82-1,4.18,4.18,0,0,1,.62-.17,4.1,4.1,0,0,1,1.19.66q.78.58.78.82c0,.14-.21.25-.62.33q-3.75.54-6.8,1v4.12A47.69,47.69,0,0,0,241,15.16l.37-.08,1.15-9.64Z"/><path class="cls-1" d="M269.08,5.27q.53,0,1.89,1.85a5,5,0,0,1,1.24,2.55.81.81,0,0,1-.37.78,11.07,11.07,0,0,0-2.47,3.13,40.15,40.15,0,0,1-5.11,6.55,41.53,41.53,0,0,1-6.18,5.31,1.58,1.58,0,0,1-.66.41.33.33,0,0,1-.37-.37q0-.08.37-.45a53,53,0,0,0,5.36-6.26,44.94,44.94,0,0,0,4.78-8.12,11.83,11.83,0,0,0,1.2-4.94C268.75,5.42,268.86,5.27,269.08,5.27Zm5.27,9.89q.58,0,2.06,2.35a3.89,3.89,0,0,1,.78,1.94q0,.45-.74,1.11a13.63,13.63,0,0,0-1.77,2.55L268,33.62l16.11-2.18a31.33,31.33,0,0,0-4.57-5.6,1.76,1.76,0,0,1-.54-1c0-.08.05-.12.16-.12a2.4,2.4,0,0,1,1.24.49,48.3,48.3,0,0,1,6.39,5.11,3.37,3.37,0,0,1,1.4,2.1,17.16,17.16,0,0,1-.25,2.93q-.37,1.52-.91,1.57-.33,0-.62-.82a19.5,19.5,0,0,0-1.65-3.63l-16.27,3.3a10.07,10.07,0,0,0-3,1.07,4.25,4.25,0,0,1-1.32.7c-.33,0-.8-.39-1.4-1.15a5.4,5.4,0,0,1-.91-1.28c0-.22.15-.4.45-.54a7.88,7.88,0,0,0,3.09-2.27,60.13,60.13,0,0,0,3.42-5.23,62.14,62.14,0,0,0,3.34-6.26,17,17,0,0,0,1.61-4.86C273.82,15.42,274,15.16,274.35,15.16Zm.7-13.06h2.76a1.27,1.27,0,0,1,1.2.49,6.86,6.86,0,0,0,.78,3.09l6.43,10.38a20.81,20.81,0,0,0,4,4.78,10,10,0,0,0,4.61,2.06c.19,0,.29.12.29.29s0,.33-.12.33a20.26,20.26,0,0,1-6.8,1.19.74.74,0,0,1-.7-.37l-10.22-19A4.92,4.92,0,0,0,274.68,3q-.5-.16-.5-.54T275.05,2.1Z"/><path class="cls-1" d="M321.34,10.55a2.8,2.8,0,0,1,1.69.66q1,.95,1,1.28a.29.29,0,0,1-.33.33q-4.78.41-10.59,1.11a64.33,64.33,0,0,0-6.8.87,2.65,2.65,0,0,1-.78.17,3.78,3.78,0,0,1-1.61-.78q-1-.7-1-1c0-.22.15-.33.45-.33q4.53-.29,6.18-.54,2.1-.21,3.91-.45l4.45-.62a13.72,13.72,0,0,0,2.39-.45A6.21,6.21,0,0,1,321.34,10.55Zm8.57-9.39a3.11,3.11,0,0,1,1.48.82q1.4,1.07,1.48,1.65a5.26,5.26,0,0,1-.74,1.57,2.9,2.9,0,0,0-.91,2V33.29a18.17,18.17,0,0,1-.41,4.45q-.54,1.77-1.07,1.77a1,1,0,0,1-.66-.45q-3-3.54-6.06-6.59-.37-.29-.37-.54a.53.53,0,0,1,.17-.45,2.87,2.87,0,0,1,.58.08q2.18.74,3.87,1.28a1.65,1.65,0,0,0,.66.12c.36-.08.54-.39.54-.91q.16-2.06.16-4.74V5.52L315,6.84a35.56,35.56,0,0,0-4.28.49,6.19,6.19,0,0,1-1.32.21,4.07,4.07,0,0,1-2.06-.87,2.36,2.36,0,0,1-.91-1.57c0-.11.15-.16.45-.16q1.65,0,4-.21l14.92-1.11a3.82,3.82,0,0,0,3-1.48Q329.37,1.15,329.91,1.15ZM307.7,17.3q.58,0,1.44,1.57a3.11,3.11,0,0,1,.25.54l6.51-1.15a2.9,2.9,0,0,0,1.73-.87q.86-1.11,1.24-1.11t1.36.91q1.11,1,1.11,1.24,0,.41-.74,1.15a2.8,2.8,0,0,0-.7,1.65l-.66,5,0,0q.95.74.95,1t-.87.33l-9.52.87a5.17,5.17,0,0,1-.12,1.69.35.35,0,0,1-.37.25q-.45,0-1.24-1.4a6.29,6.29,0,0,1-.58-2.23,4.28,4.28,0,0,1,.17-.49,6.35,6.35,0,0,0,.37-2.43,34.52,34.52,0,0,0-.25-4.12c-.16-1.13-.26-1.8-.29-2S307.59,17.33,307.7,17.3Zm2.14,9.23a55.15,55.15,0,0,0,7.17-.87l.25,0,.41-5.73L309.85,21v.21Q309.93,21.92,309.85,26.53Z"/><path d="M12,60.39v3.76q0,1.15,0,1.93a.32.32,0,0,0,.25.33l1.08.34,0,.42-2.32,0-2.42,0,0-.42,1.2-.36a.32.32,0,0,0,.26-.3q0-.79,0-1.94V56.23q0-1,0-1.62a.33.33,0,0,0-.23-.33L8.6,53.9l0-.42q1.26,0,2.42,0t2.31,0l0,.42-1.11.34a.3.3,0,0,0-.25.3q0,.7,0,1.65V59.5h7.11V56.19q0-.95,0-1.65a.3.3,0,0,0-.25-.3l-1.08-.34,0-.42q1.19,0,2.35,0t2.38,0l0,.42-1.23.38a.33.33,0,0,0-.23.33q0,.64,0,1.62v7.92q0,1.15,0,1.94a.32.32,0,0,0,.26.3l1.18.36,0,.42-2.46,0-2.28,0,0-.42,1.1-.34a.32.32,0,0,0,.25-.33q0-.78,0-1.93V60.39Z"/><path d="M34.8,53.27l4.34,11.94a3.28,3.28,0,0,0,.44.91,1.19,1.19,0,0,0,.57.36l.92.27,0,.42-2.37,0-2.63,0,0-.42.93-.27a.74.74,0,0,0,.28-.15.35.35,0,0,0,.08-.26,1.76,1.76,0,0,0-.1-.51c-.07-.21-.17-.49-.29-.84L36,62.1H31.33l-1,2.61-.32.87a1.6,1.6,0,0,0-.12.51.32.32,0,0,0,.09.25.77.77,0,0,0,.28.14l.91.26,0,.44-2.27,0-2,0,0-.42,1-.3a1,1,0,0,0,.55-.36,3.94,3.94,0,0,0,.39-.76l5-11.91Zm-3.12,7.94h4l-1.9-5.38Z"/><path d="M59.45,60a7.64,7.64,0,0,1-1.92,5.43,7,7,0,0,1-5.36,2.06,6.62,6.62,0,0,1-5.06-1.9,7.19,7.19,0,0,1-1.79-5.14,7.31,7.31,0,0,1,1.93-5.35,7.14,7.14,0,0,1,5.34-2A6.75,6.75,0,0,1,57.66,55,6.9,6.9,0,0,1,59.45,60Zm-12,.13A7.94,7.94,0,0,0,48.75,65a4.46,4.46,0,0,0,3.78,1.69,4.25,4.25,0,0,0,3.62-1.54,8,8,0,0,0,1.17-4.83,7.82,7.82,0,0,0-1.24-4.75,4.47,4.47,0,0,0-3.83-1.66,4.24,4.24,0,0,0-3.65,1.54A7.83,7.83,0,0,0,47.46,60.15Z"/><path d="M68.78,64.15q0,.59,0,1.05c0,.31,0,.59,0,.84a.32.32,0,0,0,.25.3l1.35.41,0,.42-2.58,0-2.42,0,0-.42,1.2-.36a.32.32,0,0,0,.26-.3c0-.26,0-.55,0-.87s0-.68,0-1.07V56.23q0-.5,0-.9c0-.27,0-.51,0-.72a.33.33,0,0,0-.23-.33L65.4,53.9l0-.42q1.26,0,2.46,0,.81,0,1.56,0t1.37,0a5.72,5.72,0,0,1,3.5.9A3.17,3.17,0,0,1,75.46,57a4,4,0,0,1-1.37,3.26,5.78,5.78,0,0,1-3.85,1.16,13.07,13.07,0,0,1-1.46-.09Zm0-3.6a8,8,0,0,0,1.35.12,3.25,3.25,0,0,0,2.38-.81,3.33,3.33,0,0,0,.82-2.47A3.24,3.24,0,0,0,72.54,55a3.33,3.33,0,0,0-2.45-.78,11.26,11.26,0,0,0-1.32.08Z"/><path d="M84,64.15q0,.59,0,1.06c0,.32,0,.61,0,.87s.12.27.34.33l1.1.34,0,.42-2.42,0-2.42,0,0-.42,1.2-.36a.33.33,0,0,0,.26-.3c0-.26,0-.55,0-.87s0-.68,0-1.07V56.23q0-.5,0-.9c0-.27,0-.51,0-.72a.33.33,0,0,0-.23-.33l-1.21-.38,0-.42q1.26,0,2.42,0t2.42,0l0,.42-1.21.36a.31.31,0,0,0-.25.3c0,.23,0,.48,0,.75s0,.56,0,.88Z"/><path d="M93.79,56.26v7.89q0,1.15,0,1.91a.31.31,0,0,0,.24.33l1.16.34,0,.44-2,0-2,0,0-.42,1.2-.36a.32.32,0,0,0,.26-.3q0-.79,0-1.94V56.23q0-1,0-1.62a.33.33,0,0,0-.23-.33l-1.21-.38,0-.42,2,0c.29,0,.59,0,.89,0l8.2,10.24V56.19q0-.95,0-1.63a.32.32,0,0,0-.25-.3l-1.15-.33,0-.45,2,0c.52,0,1.19,0,2,0l0,.42-1.23.38a.33.33,0,0,0-.23.33q0,.64,0,1.62V67.15l-.82.08Z"/><path d="M124.22,67.15l-2.66,0,0-.42,1.45-.43a.31.31,0,0,0,.25-.3q0-.74,0-1.89V54.38H119.8l-.87,2.6-.39.07-.25-3.5.07-.08q2.4,0,4.6,0h2.61q2.19,0,4.62,0l.06.08L129.62,57l-.39.07-.62-2.67h-3.45v9.75q0,1.15,0,1.89a.31.31,0,0,0,.25.3l1.45.43,0,.42Z"/><path d="M138.69,64.15q0,.59,0,1.05c0,.31,0,.6,0,.85a.37.37,0,0,0,.25.38l1.08.32,0,.42-2.32,0-2.42,0,0-.42,1.2-.36a.33.33,0,0,0,.26-.3c0-.26,0-.55,0-.87s0-.68,0-1.07V56.23q0-.5,0-.9c0-.27,0-.51,0-.72a.33.33,0,0,0-.23-.33l-1.21-.38,0-.42q1.26,0,2.46,0h.6l.89,0,.89,0h.56a5.61,5.61,0,0,1,3.38.84,2.87,2.87,0,0,1,1.13,2.45,3.5,3.5,0,0,1-.77,2.36,4.92,4.92,0,0,1-2.36,1.39q.62.94,1.15,1.81l1,1.6q.45.73.83,1.28a6,6,0,0,0,.7.88,2.91,2.91,0,0,0,.33.29,1.8,1.8,0,0,0,.35.2l.38.14.44.12,0,.43a9.81,9.81,0,0,1-1.18.09l-.7,0a3.12,3.12,0,0,1-.54-.08,2.2,2.2,0,0,1-.43-.15,2.09,2.09,0,0,1-.38-.24,3.61,3.61,0,0,1-.8-.87c-.26-.38-.53-.81-.81-1.29s-.57-1-.88-1.54-.62-1.08-1-1.6l-.25-.37a.9.9,0,0,0-.23-.21.79.79,0,0,0-.29-.11l-.42,0-.68,0Zm0-4.12,1.1,0a3.59,3.59,0,0,0,2.48-.72,2.91,2.91,0,0,0,.79-2.25,2.79,2.79,0,0,0-.75-2.17,3.42,3.42,0,0,0-2.35-.68l-.59,0-.67.06Z"/><path d="M154.38,67.15l-2.42,0,0-.42,1.2-.36a.32.32,0,0,0,.26-.3c0-.26,0-.55,0-.87s0-.68,0-1.07V56.23q0-.5,0-.9c0-.27,0-.51,0-.72a.33.33,0,0,0-.23-.33l-1.21-.38,0-.42q1.26,0,2.45,0,1,0,1.88,0t1.86,0A7.42,7.42,0,0,1,163.25,55,5.93,5.93,0,0,1,165,59.6a7.79,7.79,0,0,1-1.91,5.61,7,7,0,0,1-5.35,2q-.95,0-1.69,0T154.38,67.15Zm.94-.87c.38.05.76.09,1.13.1l1.11,0a5,5,0,0,0,3.93-1.52,6.85,6.85,0,0,0,1.35-4.65,6.74,6.74,0,0,0-1.28-4.52,5.1,5.1,0,0,0-4.05-1.47l-1,0-1.21.07Z"/><path d="M174.34,64.15q0,.59,0,1.06c0,.32,0,.61,0,.87s.12.27.34.33l1.1.34,0,.42-2.42,0-2.42,0,0-.42,1.2-.36a.33.33,0,0,0,.26-.3c0-.26,0-.55,0-.87s0-.68,0-1.07V56.23q0-.5,0-.9c0-.27,0-.51,0-.72a.33.33,0,0,0-.23-.33L171,53.9l0-.42q1.26,0,2.42,0t2.42,0l0,.42-1.21.36a.31.31,0,0,0-.25.3c0,.23,0,.48,0,.75s0,.56,0,.88Z"/><path d="M184.11,56.26v7.89q0,1.15,0,1.91a.31.31,0,0,0,.24.33l1.16.34,0,.44-2,0-2,0,0-.42,1.2-.36a.32.32,0,0,0,.26-.3q0-.79,0-1.94V56.23q0-1,0-1.62a.33.33,0,0,0-.23-.33l-1.21-.38,0-.42,2,0c.29,0,.59,0,.89,0l8.2,10.24V56.19q0-.95,0-1.63a.32.32,0,0,0-.25-.3l-1.15-.33,0-.45,2,0c.52,0,1.19,0,2,0l0,.42-1.23.38a.33.33,0,0,0-.23.33q0,.64,0,1.62V67.15l-.82.08Z"/><path d="M211.34,56.88l-.39.06-.67-2.56a8.83,8.83,0,0,0-2.24-.31,4.67,4.67,0,0,0-3.81,1.66,7,7,0,0,0-1.37,4.57A6.93,6.93,0,0,0,204.35,65a5,5,0,0,0,4,1.73,6.52,6.52,0,0,0,1.66-.21V63.88q0-.49,0-.89c0-.27,0-.51,0-.73a.31.31,0,0,0-.23-.32l-1.21-.38,0-.42,2.42,0q1.18,0,2.27,0l0,.42-1.06.31a.33.33,0,0,0-.25.3c0,.26,0,.53,0,.8s0,.56,0,.87V67l-.06.07a15.81,15.81,0,0,1-3.67.48,7.88,7.88,0,0,1-5.46-1.82,6.45,6.45,0,0,1-2-5.07,7,7,0,0,1,2.11-5.42,8.13,8.13,0,0,1,5.75-2,14.62,14.62,0,0,1,3.3.4l.06.08Z"/><path d="M238.33,56.88l-.39.06-.71-2.57a9.14,9.14,0,0,0-2.2-.3,4.6,4.6,0,0,0-3.76,1.67,6.62,6.62,0,0,0-1.37,4.34,6.46,6.46,0,0,0,1.56,4.55,5.58,5.58,0,0,0,4.33,1.7,10,10,0,0,0,3.27-.6l.11.44a7.49,7.49,0,0,1-4.36,1.33,7,7,0,0,1-5.1-1.92,6.81,6.81,0,0,1-1.95-5.07,6.82,6.82,0,0,1,2.14-5.3,8,8,0,0,1,5.58-2,14.94,14.94,0,0,1,3.38.4l.07.08Z"/><path d="M258.25,60a7.64,7.64,0,0,1-1.92,5.43A7,7,0,0,1,251,67.51a6.62,6.62,0,0,1-5.06-1.9,7.19,7.19,0,0,1-1.79-5.14A7.31,7.31,0,0,1,246,55.12a7.14,7.14,0,0,1,5.34-2A6.75,6.75,0,0,1,256.45,55,6.9,6.9,0,0,1,258.25,60Zm-12,.13A7.94,7.94,0,0,0,247.54,65a4.46,4.46,0,0,0,3.78,1.69,4.25,4.25,0,0,0,3.62-1.54,8,8,0,0,0,1.17-4.83,7.82,7.82,0,0,0-1.24-4.75A4.47,4.47,0,0,0,251,53.94a4.24,4.24,0,0,0-3.65,1.54A7.83,7.83,0,0,0,246.25,60.15Z"/><path d="M264.67,65.1a1.15,1.15,0,0,1,.83.32,1.11,1.11,0,0,1,.33.83,1.14,1.14,0,0,1-.33.84,1.13,1.13,0,0,1-.83.33,1.11,1.11,0,0,1-1.18-1.17,1.12,1.12,0,0,1,.32-.83A1.17,1.17,0,0,1,264.67,65.1Z"/><path d="M272.06,69.87a3.06,3.06,0,0,0,1.39-2.22,1.72,1.72,0,0,0-1-1.52,1.2,1.2,0,0,1,.33-.88,1.15,1.15,0,0,1,.85-.33,1.14,1.14,0,0,1,.93.44,1.75,1.75,0,0,1,.36,1.13,3.55,3.55,0,0,1-.62,2,7.07,7.07,0,0,1-1.87,1.82Z"/><path d="M284.64,56.19v7.94q0,1.08,0,2.14h4.76l1.25-2.59.44-.07-.21,3.5-.06.07-4.68,0H283.7l-2.42,0,0-.42,1.2-.36a.33.33,0,0,0,.26-.3c0-.26,0-.55,0-.87s0-.68,0-1.07V56.23q0-.5,0-.9c0-.27,0-.51,0-.72a.33.33,0,0,0-.23-.33l-1.21-.38,0-.42q1.26,0,2.42,0t2.42,0l0,.42-1.21.36a.31.31,0,0,0-.25.3c0,.23,0,.56,0,1S284.64,56.2,284.64,56.19Z"/><path d="M300.18,67.15l-2.66,0,0-.42,1.45-.43a.31.31,0,0,0,.25-.3q0-.74,0-1.89V54.38h-3.45l-.87,2.6-.39.07-.25-3.5.07-.08q2.4,0,4.6,0h2.61q2.19,0,4.62,0l.06.08L305.58,57l-.39.07-.62-2.67h-3.45v9.75q0,1.15,0,1.89a.31.31,0,0,0,.25.3l1.45.43,0,.42Z"/><path d="M313.71,67.15l-2.42,0,0-.42,1.2-.36a.32.32,0,0,0,.26-.3c0-.26,0-.55,0-.87s0-.68,0-1.07V56.23q0-.5,0-.9c0-.27,0-.51,0-.72a.33.33,0,0,0-.23-.33l-1.21-.38,0-.42q1.26,0,2.45,0,1,0,1.88,0t1.86,0A7.42,7.42,0,0,1,322.58,55a5.93,5.93,0,0,1,1.72,4.62,7.79,7.79,0,0,1-1.91,5.61,7,7,0,0,1-5.35,2q-.95,0-1.69,0T313.71,67.15Zm.94-.87c.38.05.76.09,1.13.1l1.11,0a5,5,0,0,0,3.93-1.52,6.85,6.85,0,0,0,1.35-4.65,6.74,6.74,0,0,0-1.28-4.52,5.1,5.1,0,0,0-4.05-1.47l-1,0-1.21.07Z"/></g></svg>